<?xml version="1.0" standalone="no"?>
<!DOCTYPE svg PUBLIC "-//W3C//DTD SVG 20010904//EN"
 "http://www.w3.org/TR/2001/REC-SVG-20010904/DTD/svg10.dtd">
<svg version="1.0" xmlns="http://www.w3.org/2000/svg"
 width="1830.000000pt" height="1830.000000pt" viewBox="0 0 1830.000000 1830.000000"
 preserveAspectRatio="xMidYMid meet">
<metadata>
Created by potrace 1.11, written by Peter Selinger 2001-2013
</metadata>
<g transform="translate(0.000000,1830.000000) scale(0.100000,-0.100000)"
fill="#000000" stroke="none">
<path d="M15858 12455 c-2 -1 -34 -6 -73 -9 -81 -7 -93 -9 -235 -37 -291 -58
-575 -188 -816 -374 -62 -48 -215 -204 -275 -280 -130 -167 -224 -336 -312
-565 -31 -80 -102 -326 -118 -412 -17 -91 -19 -357 -4 -463 18 -124 30 -173
70 -280 77 -205 197 -377 360 -514 177 -150 367 -240 612 -293 93 -19 137 -22
323 -22 189 0 255 4 405 29 86 15 292 73 380 107 322 127 625 341 810 573 22
28 43 52 46 55 24 18 150 225 198 325 133 275 194 541 194 850 1 512 -265 947
-718 1173 -50 25 -223 89 -256 95 -13 3 -60 13 -104 23 -58 12 -134 18 -282
20 -111 1 -203 1 -205 -1z m127 -987 c17 -4 43 -11 60 -14 97 -17 258 -151
307 -256 111 -233 40 -557 -166 -764 -160 -160 -352 -244 -570 -249 -137 -4
-215 12 -307 62 -65 35 -179 135 -179 157 0 5 -7 17 -15 26 -16 18 -50 107
-60 156 -21 109 7 282 66 412 108 240 331 417 584 466 78 15 234 18 280 4z"/>
<path d="M8213 12404 c-33 -16 -45 -38 -64 -116 -11 -47 -12 -48 -50 -48 -46
0 -88 -15 -106 -38 -12 -16 -30 -69 -39 -115 -2 -10 -5 -26 -8 -35 -5 -16 -9
-37 -21 -99 -3 -16 -12 -57 -20 -93 -8 -36 -17 -80 -20 -97 -3 -18 -12 -61
-20 -95 -8 -35 -16 -74 -19 -88 -3 -14 -8 -36 -11 -50 -12 -51 -17 -119 -12
-142 12 -46 34 -49 439 -49 376 0 442 -5 419 -32 -5 -7 -31 -76 -56 -152 -26
-77 -51 -145 -56 -151 -5 -6 -11 -30 -13 -54 -3 -24 -9 -46 -15 -49 -5 -4 -12
-18 -15 -31 -2 -14 -12 -42 -20 -62 -9 -21 -13 -38 -9 -38 5 0 3 -4 -2 -8 -6
-4 -28 -61 -50 -127 -22 -66 -43 -123 -48 -126 -5 -4 -7 -11 -4 -16 4 -6 -3
-27 -13 -49 -11 -21 -20 -43 -20 -50 0 -6 -6 -24 -14 -40 -25 -49 -27 -83 -6
-94 10 -5 68 -8 129 -7 61 2 116 0 122 -3 6 -4 25 -4 43 -1 17 4 59 5 94 2
l62 -6 -26 -49 c-14 -26 -32 -65 -39 -86 -7 -21 -25 -64 -40 -96 -44 -97 -55
-122 -55 -128 0 -3 -12 -31 -27 -63 -14 -32 -25 -61 -25 -65 1 -5 -2 -8 -8 -8
-5 0 -10 -7 -10 -16 0 -9 -6 -28 -14 -42 -17 -33 -34 -72 -81 -187 -60 -144
-80 -189 -90 -205 -5 -8 -11 -23 -12 -33 -2 -10 -11 -32 -20 -50 -9 -18 -18
-34 -18 -37 -1 -3 -9 -23 -18 -44 -31 -70 -32 -85 -6 -94 13 -5 57 -6 97 -1
40 4 129 10 197 13 113 4 123 3 118 -12 -3 -9 -10 -22 -15 -28 -5 -7 -8 -16
-7 -20 1 -5 -5 -26 -14 -46 -44 -98 -50 -114 -52 -124 -2 -6 -21 -48 -43 -95
-21 -46 -42 -97 -46 -113 -4 -15 -14 -35 -22 -43 -8 -8 -12 -19 -9 -24 4 -5 2
-9 -2 -9 -5 0 -21 -36 -37 -80 -15 -44 -33 -80 -38 -80 -5 0 -8 -6 -5 -12 2
-7 -4 -29 -14 -48 -10 -19 -30 -64 -44 -100 -15 -36 -37 -87 -50 -115 -13 -27
-36 -79 -51 -115 -15 -36 -39 -92 -54 -125 -14 -33 -32 -76 -40 -95 -7 -19
-17 -39 -22 -45 -4 -5 -8 -18 -8 -29 0 -11 -8 -28 -17 -38 -9 -10 -17 -26 -18
-36 -1 -9 -12 -37 -25 -62 -13 -25 -23 -49 -22 -53 1 -5 -6 -25 -17 -45 -29
-56 -61 -130 -61 -143 0 -24 36 1 131 91 151 144 680 680 671 680 -2 0 16 16
40 36 23 20 50 46 58 58 9 11 105 112 215 223 110 111 301 306 425 433 124
127 285 291 358 365 126 127 132 136 110 144 -23 8 -133 6 -198 -5 -19 -3 -87
-7 -150 -9 -125 -4 -253 -13 -285 -21 -12 -3 -15 -2 -9 3 6 4 21 35 34 68 13
33 29 67 35 75 7 8 19 36 29 63 10 26 22 47 28 47 6 0 8 6 5 14 -3 7 3 26 12
42 10 16 29 58 44 94 43 109 78 179 91 187 15 9 43 68 58 121 1 4 8 13 15 20
7 8 11 18 8 23 -4 5 -2 9 3 9 5 0 14 18 21 40 6 22 16 40 22 40 6 0 7 5 4 10
-3 6 3 27 14 48 10 20 29 60 41 87 12 28 32 73 45 100 12 28 31 69 41 93 10
23 20 42 23 42 3 0 7 13 8 29 2 28 0 29 -50 33 -29 2 -83 1 -122 -4 -38 -5
-122 -10 -185 -12 -63 -3 -127 -7 -143 -11 -25 -7 -36 3 -20 19 4 3 8 16 10
28 2 12 10 35 18 51 8 17 15 37 15 44 0 8 7 27 15 41 13 24 109 293 119 333 3
9 14 35 25 58 12 22 19 41 16 41 -2 0 4 23 15 50 11 28 17 50 15 50 -3 0 2 11
11 25 l16 24 387 0 c218 0 398 4 412 10 41 16 78 64 91 119 12 50 14 52 48 52
19 0 46 6 60 13 27 14 78 81 84 112 2 11 16 76 31 145 15 69 29 136 31 150 3
14 23 108 44 210 22 102 38 192 37 201 -2 9 -10 27 -19 40 l-15 24 -1314 2
c-1176 2 -1317 1 -1346 -13z"/>
<path d="M2705 12396 c-43 -19 -65 -50 -170 -241 -16 -27 -140 -248 -278 -490
-137 -242 -261 -460 -275 -485 -14 -25 -61 -108 -105 -185 -44 -77 -91 -160
-105 -185 -13 -25 -32 -58 -42 -75 -10 -16 -29 -50 -43 -75 -14 -25 -89 -157
-167 -295 -78 -137 -173 -304 -210 -370 -38 -66 -139 -244 -224 -395 -86 -151
-159 -285 -162 -298 -14 -52 -17 -52 463 -52 485 0 486 0 535 59 15 17 71 114
125 216 l98 185 455 -3 c295 -1 455 -6 456 -12 1 -23 17 -161 19 -177 2 -9 7
-48 10 -85 10 -109 22 -141 58 -163 30 -19 53 -20 469 -20 306 0 445 3 462 11
26 12 42 54 32 86 -2 10 -7 41 -11 68 -3 28 -18 129 -31 225 -34 233 -33 228
-39 285 -3 28 -7 57 -10 65 -2 8 -7 40 -10 70 -3 30 -8 62 -10 70 -2 8 -7 37
-10 64 -3 27 -12 92 -20 145 -7 53 -16 114 -19 136 -3 22 -11 74 -16 115 -6
41 -13 91 -16 110 -2 19 -6 51 -9 70 -3 19 -10 67 -16 105 -5 39 -11 81 -14
95 -2 14 -9 61 -15 105 -16 115 -19 136 -24 175 -3 19 -10 71 -16 115 -6 44
-13 91 -15 105 -8 45 -26 174 -31 215 -2 22 -7 56 -10 75 -12 70 -19 120 -30
210 -3 25 -9 68 -14 95 -5 28 -12 73 -15 100 -4 28 -8 66 -11 85 -10 83 -16
101 -40 130 l-26 30 -446 0 c-349 -1 -454 -4 -477 -14z m239 -1276 c4 -85 9
-218 11 -295 3 -77 7 -184 10 -237 l4 -98 -199 0 -200 0 9 23 c9 21 60 133
121 262 15 33 39 85 53 115 138 306 178 392 182 388 2 -2 6 -73 9 -158z"/>
<path d="M5269 12395 c-28 -15 -53 -65 -65 -131 -10 -57 -10 -58 -39 -189 -15
-66 -29 -129 -30 -140 -2 -11 -10 -53 -19 -92 -9 -40 -18 -87 -21 -105 -3 -17
-8 -34 -10 -38 -2 -3 -6 -19 -9 -35 -3 -16 -10 -51 -16 -79 -6 -28 -12 -60
-14 -71 -2 -11 -25 -115 -50 -231 -25 -116 -48 -227 -51 -245 -3 -19 -12 -61
-20 -94 -8 -33 -28 -123 -45 -200 -55 -259 -132 -620 -137 -645 -2 -14 -19
-95 -38 -180 -77 -348 -125 -583 -125 -606 0 -13 9 -33 20 -44 19 -19 33 -20
473 -20 431 0 454 1 484 20 31 18 45 49 59 128 3 13 24 115 48 226 25 112 47
218 51 237 3 19 23 113 43 209 l37 175 61 3 61 3 20 -73 c11 -40 65 -224 118
-408 54 -184 107 -366 117 -405 31 -119 -13 -110 521 -113 254 -1 472 0 485 3
32 8 62 41 62 68 0 13 -15 70 -34 128 -19 57 -78 239 -131 404 -53 165 -119
367 -146 449 -27 82 -49 155 -49 161 0 6 17 19 37 30 120 64 307 231 407 365
69 92 69 92 82 116 130 231 177 394 177 619 1 163 -17 245 -82 379 -105 214
-303 365 -551 417 -77 16 -156 17 -870 18 -664 0 -789 -2 -811 -14z m1217
-815 c25 -12 54 -38 70 -63 25 -37 29 -51 28 -112 0 -52 -6 -81 -23 -113 -32
-62 -92 -124 -148 -152 -45 -24 -59 -25 -245 -28 -109 -2 -198 0 -198 5 0 4
23 111 50 237 28 127 50 234 50 238 0 4 84 8 187 8 167 0 191 -2 229 -20z"/>
<path d="M11470 12393 c-14 -9 -28 -22 -33 -27 -14 -21 -36 -113 -98 -411 -6
-27 -13 -61 -15 -75 -3 -14 -11 -53 -19 -88 -8 -34 -17 -76 -20 -93 -3 -17
-14 -68 -25 -114 -11 -46 -22 -98 -25 -117 -3 -18 -8 -40 -10 -48 -2 -8 -7
-30 -10 -49 -3 -19 -7 -37 -9 -40 -2 -3 -7 -22 -10 -41 -3 -19 -35 -172 -71
-340 -37 -168 -69 -316 -71 -329 -3 -14 -28 -131 -55 -260 -28 -130 -53 -247
-55 -261 -3 -14 -9 -41 -14 -60 -5 -19 -11 -46 -13 -60 -4 -19 -43 -205 -72
-340 -19 -84 -35 -160 -39 -180 -32 -164 -32 -164 -6 -190 19 -19 33 -20 464
-20 290 0 454 4 474 11 35 12 56 40 66 86 4 18 7 34 6 35 -1 2 3 14 8 28 5 14
13 47 16 74 4 27 9 53 11 56 4 6 28 115 41 185 2 11 8 40 14 65 5 25 12 56 14
70 3 14 7 34 10 45 6 27 46 214 52 244 3 13 8 40 12 60 l8 36 59 3 60 3 43
-148 c24 -81 52 -177 62 -213 10 -36 30 -105 45 -155 80 -273 114 -393 117
-415 2 -14 17 -34 37 -47 l34 -23 459 0 c383 0 464 2 487 15 51 26 52 47 7
186 -19 57 -78 239 -131 404 -54 165 -119 367 -146 449 -27 82 -49 154 -49
160 0 6 28 28 63 48 120 71 270 204 357 318 19 25 38 47 41 50 15 11 108 169
136 230 45 99 80 215 101 335 15 86 6 287 -17 370 -49 181 -142 322 -284 428
-90 67 -216 128 -296 142 -14 2 -48 9 -76 14 -30 6 -370 10 -830 11 -719 0
-782 -1 -805 -17z m1209 -809 c71 -28 119 -118 107 -201 -13 -100 -83 -197
-173 -243 -45 -24 -59 -25 -246 -28 l-198 -3 4 28 c3 15 23 111 45 213 22 102
44 200 47 218 l7 32 184 0 c144 0 192 -3 223 -16z"/>
<path d="M5954 7156 c-60 -20 -126 -55 -156 -83 -31 -30 -45 -25 -46 17 -1 56
-12 60 -149 60 -68 0 -133 -5 -143 -10 -11 -6 -24 -27 -29 -48 -10 -35 -87
-390 -96 -442 -3 -14 -7 -34 -9 -45 -50 -223 -73 -352 -64 -362 8 -10 57 -13
183 -13 151 0 174 2 187 18 14 15 29 67 44 152 3 14 11 57 20 96 8 39 16 77
18 85 13 71 31 139 42 161 32 63 112 89 149 48 21 -23 21 -69 0 -165 -49 -223
-76 -368 -71 -381 7 -19 342 -20 368 0 10 7 24 44 34 92 9 43 18 86 19 94 41
179 73 367 74 439 3 145 -45 235 -148 278 -49 21 -176 26 -227 9z"/>
<path d="M11660 7155 c-248 -70 -450 -348 -434 -597 11 -170 99 -293 240 -334
82 -23 191 -16 259 17 30 15 55 25 55 23 0 -23 -35 -77 -63 -98 -48 -37 -154
-45 -254 -21 -40 10 -79 15 -86 12 -16 -6 -150 -218 -161 -254 -9 -28 29 -54
124 -84 87 -29 296 -36 389 -14 220 52 368 216 427 470 1 6 19 89 39 185 20
96 39 184 41 195 3 11 7 31 10 45 3 14 18 86 34 160 53 244 55 257 40 275 -10
12 -39 15 -141 15 l-128 0 -28 -37 c-15 -21 -29 -40 -30 -42 -2 -3 -18 10 -35
28 -17 18 -45 39 -61 48 -44 22 -170 26 -237 8z m167 -360 c39 -27 49 -84 25
-145 -38 -99 -179 -119 -208 -30 -35 107 98 235 183 175z"/>
<path d="M3780 7149 c-25 -6 -49 -15 -54 -20 -6 -5 -17 -9 -25 -9 -20 0 -127
-66 -173 -106 -54 -48 -120 -133 -150 -194 -42 -85 -57 -155 -54 -251 2 -75 7
-96 34 -150 38 -77 73 -117 135 -153 124 -73 314 -73 460 0 60 31 87 52 87 70
0 7 -20 56 -46 107 l-45 95 -67 -24 c-79 -28 -107 -29 -155 -9 -33 13 -67 48
-67 67 0 5 101 8 224 8 238 0 272 5 318 48 77 72 76 264 -3 378 -66 97 -159
145 -288 150 -47 2 -106 -2 -131 -7z m138 -299 c17 -11 32 -24 32 -30 0 -6
-46 -10 -120 -10 -66 0 -120 2 -120 4 0 3 18 16 40 29 53 31 124 34 168 7z"/>
<path d="M7834 7136 c-155 -50 -282 -158 -357 -305 -53 -104 -71 -179 -65
-275 9 -139 89 -255 216 -314 106 -49 295 -37 422 27 54 28 80 50 80 67 0 25
-85 194 -98 194 -7 0 -40 -9 -74 -21 -67 -22 -122 -21 -158 4 -24 17 -54 56
-48 62 2 3 107 5 234 5 254 2 275 6 316 61 35 47 48 92 48 160 0 139 -75 260
-197 321 -57 28 -77 32 -157 34 -72 2 -106 -2 -162 -20z m172 -287 c19 -11 34
-25 34 -30 0 -5 -54 -9 -121 -9 -130 0 -140 7 -65 41 54 25 111 24 152 -2z"/>
<path d="M10027 7146 c-40 -15 -46 -19 -124 -84 -29 -24 -54 -41 -54 -38 -1 3
-2 9 -3 14 -1 4 -5 25 -10 47 -13 64 -15 65 -152 65 -111 0 -126 -2 -144 -20
-11 -11 -20 -23 -21 -27 -1 -10 -3 -23 -23 -118 -33 -152 -45 -215 -52 -251
-3 -16 -14 -69 -25 -119 -12 -49 -22 -99 -25 -110 -6 -30 -22 -106 -29 -135
-15 -66 -17 -123 -4 -131 20 -12 326 -11 349 1 23 12 28 29 80 278 42 203 52
232 95 272 39 37 115 36 150 -2 43 -47 60 -39 178 84 59 62 115 126 123 141
14 27 14 29 -23 63 -21 20 -55 45 -77 56 -50 26 -158 33 -209 14z"/>
<path d="M13472 7152 c-25 -2 -45 -9 -48 -17 -3 -8 0 -47 6 -87 7 -40 14 -82
15 -93 2 -11 15 -92 30 -180 14 -88 28 -176 31 -195 3 -19 7 -42 9 -50 2 -8 6
-28 9 -45 3 -16 14 -89 26 -161 l21 -131 -74 -149 c-41 -81 -72 -154 -70 -161
7 -18 342 -19 365 0 9 6 26 30 39 52 12 22 79 144 149 270 70 127 136 246 147
265 18 33 57 101 108 195 62 112 124 224 142 255 11 19 37 67 57 105 21 39 42
74 47 79 15 17 10 46 -8 47 -10 1 -94 1 -188 0 -150 -1 -171 -3 -187 -19 -11
-10 -65 -107 -122 -216 -113 -217 -107 -212 -121 -86 -3 30 -8 71 -10 90 -3
19 -7 60 -10 90 -8 89 -14 123 -23 132 -9 9 -257 16 -340 10z"/>
</g>
</svg>
